# xmcd CD database file
#
# Track frame offsets:
#	180
#	12723
#	27542
#	39613
#	57260
#	70719
#	91722
#	106521
#	122484
#	134486
#	148165
#	169922
#	190814
#	207380
#	218454
#
# Disc length: 3074 seconds
#
# Revision: 0
# Processed by: cddbd v1.4PL0 Copyright (c) Steve Scherf et al.
# Submitted via: CdAid 2001.05.15.01
#
DISCID=d50c000f
DTITLE=dr. soul and the chain of fools - the soul of it
DYEAR=1900
DGENRE=
TTITLE0=hey bartender
TTITLE1=she caught the kathy
TTITLE2=I ain't got you
TTITLE3=goin' back to miami
TTITLE4=ain't nobody home
TTITLE5=you've got a friend
TTITLE6=flip, flop and fly
TTITLE7=messin with the kid
TTITLE8=(I got everything I need) almost
TTITLE9=hold on I'm coming
TTITLE10=sweet home chicago
TTITLE11=I can't stand the rain
TTITLE12=hard to handle
TTITLE13=respect
TTITLE14=atmo
EXTD=
EXTT0=
EXTT1=
EXTT2=
EXTT3=
EXTT4=
EXTT5=
EXTT6=
EXTT7=
EXTT8=
EXTT9=
EXTT10=
EXTT11=
EXTT12=
EXTT13=
EXTT14=
PLAYORDER=
